<svg width="128" height="128" viewBox="0 0 128 128" xmlns="http://www.w3.org/2000/svg">
  <circle cx="64" cy="64" r="60" fill="#4CAF50"/>
  <path fill="#FFFFFF" d="M64 38c-7.7 0-14 6.3-14 14v8h-2c-3.3 0-6 2.7-6 6v18c0 3.3 2.7 6 6 6h32c3.3 0 6-2.7 6-6V66c0-3.3-2.7-6-6-6h-2v-8c0-7.7-6.3-14-14-14zm0 8c3.3 0 6 2.7 6 6v8H58v-8c0-3.3 2.7-6 6-6z"/>
  <circle cx="64" cy="84" r="3" fill="#4CAF50"/>
  <text x="50%" y="90%" text-anchor="middle" font-size="24" fill="#FFFFFF" font-family="Arial" font-weight="bold">rb</text>
</svg>
